# xmcd
#
# Track frame offsets:
#	150
#	12785
#	27760
#	39770
#	52725
#	62965
#	74087
#	83107
#	95037
#	110985
#	124097
#	134267
#	144287
#	157192
#
# Disc length: 2199 seconds
#
# Revision: 3
# Processed by: cddbd v1.5.2PL0 Copyright (c) Steve Scherf et al.
# Submitted via: audiograbber 1.83.01
#
DISCID=c108950e
DTITLE=Various Artist - Mega Country Vol. I CD4
DYEAR=1997
DGENRE=Country
TTITLE0=Johnny Cash - Ring of fire
TTITLE1=Willie Nelson - Face of a figher
TTITLE2=Billie Jo Spears - Misty Blue
TTITLE3=George Jones - The old rugged cross
TTITLE4=Johnny Cash - If I were a carpenter
TTITLE5=Brenda Lee - (That's) all you gotta do
TTITLE6=Dave Dudley - Keep an trucking
TTITLE7=Kenny Rogers - Me and Bobby Mc Gee
TTITLE8=Jerry Lee Lewis - Middle aged crazy
TTITLE9=Jack Greene - California turn-around
TTITLE10=Don Gibson - Sea of heartbreak
TTITLE11=Brenda Lee - Good old acapella (soul to soul)
TTITLE12=Ernest Tubb - Do want you do, do well
TTITLE13=Willie Nelson - If you've got the money, honey
EXTD=
EXTT0=
EXTT1=
EXTT2=
EXTT3=
EXTT4=
EXTT5=
EXTT6=
EXTT7=
EXTT8=
EXTT9=
EXTT10=
EXTT11=
EXTT12=
EXTT13=
PLAYORDER=
